HIERARCHY
ROOT Hips
{
	OFFSET -0.001795 -0.223333 0.028219
	CHANNELS 6 Xposition Yposition Zposition Zrotation Yrotation Xrotation 
	JOINT LeftUpLeg
	{
		OFFSET 0.069520 -0.091406 -0.006815
		CHANNELS 3 Zrotation Yrotation Xrotation
		JOINT LeftLeg
		{
			OFFSET 0.034277 -0.375199 -0.004496
			CHANNELS 3 Zrotation Yrotation Xrotation
			JOINT LeftFoot
			{
				OFFSET -0.013596 -0.397961 -0.043693
				CHANNELS 3 Zrotation Yrotation Xrotation
				JOINT LeftToe
				{
					OFFSET 0.026358 -0.055791 0.119288
					CHANNELS 3 Zrotation Yrotation Xrotation
					End Site
					{
						OFFSET 0.000000 0.000000 0.000000
					}
				}
			}
		}
	}
	JOINT RightUpLeg
	{
		OFFSET -0.067670 -0.090522 -0.004320
		CHANNELS 3 Zrotation Yrotation Xrotation
		JOINT RightLeg
		{
			OFFSET -0.038290 -0.382569 -0.008850
			CHANNELS 3 Zrotation Yrotation Xrotation
			JOINT RightFoot
			{
				OFFSET 0.015774 -0.398415 -0.042312
				CHANNELS 3 Zrotation Yrotation Xrotation
				JOINT RightToe
				{
					OFFSET -0.025372 -0.048144 0.123348
					CHANNELS 3 Zrotation Yrotation Xrotation
					End Site
					{
						OFFSET 0.000000 0.000000 0.000000
					}
				}
			}
		}
	}
	JOINT Spine
	{
		OFFSET -0.002533 0.108963 -0.026696
		CHANNELS 3 Zrotation Yrotation Xrotation
		JOINT Spine1
		{
			OFFSET 0.005487 0.135180 0.001092
			CHANNELS 3 Zrotation Yrotation Xrotation
			JOINT Spine2
			{
				OFFSET 0.001457 0.052922 0.025425
				CHANNELS 3 Zrotation Yrotation Xrotation
				JOINT Neck
				{
					OFFSET -0.002778 0.213870 -0.042857
					CHANNELS 3 Zrotation Yrotation Xrotation
					JOINT Head
					{
						OFFSET 0.005152 0.064970 0.051349
						CHANNELS 3 Zrotation Yrotation Xrotation
						End Site
						{
							OFFSET 0.000000 0.000000 0.000000
						}
					}
				}
				JOINT LeftShoulder
				{
					OFFSET 0.078845 0.121749 -0.034090
					CHANNELS 3 Zrotation Yrotation Xrotation
					JOINT LeftArm
					{
						OFFSET 0.090977 0.030469 -0.008868
						CHANNELS 3 Zrotation Yrotation Xrotation
						JOINT LeftForeArm
						{
							OFFSET 0.259612 -0.012772 -0.027456
							CHANNELS 3 Zrotation Yrotation Xrotation
							JOINT LeftHand
							{
								OFFSET 0.249234 0.008986 -0.001171
								CHANNELS 3 Zrotation Yrotation Xrotation
								End Site
								{
									OFFSET 0.000000 0.000000 0.000000
								}
							}
						}
					}
				}
				JOINT RightShoulder
				{
					OFFSET -0.081759 0.118833 -0.038615
					CHANNELS 3 Zrotation Yrotation Xrotation
					JOINT RightArm
					{
						OFFSET -0.096012 0.032551 -0.009143
						CHANNELS 3 Zrotation Yrotation Xrotation
						JOINT RightForeArm
						{
							OFFSET -0.253742 -0.013329 -0.021401
							CHANNELS 3 Zrotation Yrotation Xrotation
							JOINT RightHand
							{
								OFFSET -0.255298 0.007772 -0.005559
								CHANNELS 3 Zrotation Yrotation Xrotation
								End Site
								{
									OFFSET 0.000000 0.000000 0.000000
								}
							}
						}
					}
				}
			}
		}
	}
}
MOTION
Frames: 5
Frame Time: 0.050000
0.021765 0.941397 -0.057899 -0.682366 -14.185491 -1.394094 5.642546 0.546873 6.528579 0.658349 0.127355 -5.320355 9.633374 19.168580 12.566381 0.000000 0.000000 0.000000 -6.849011 0.286641 4.925756 1.034406 -0.209679 -5.577373 -3.233783 -13.912091 17.446150 0.000000 0.000000 0.000000 -6.017963 0.093447 -0.328077 5.906107 -1.524708 -18.704777 3.805935 6.003530 29.935465 1.777172 0.241440 -28.227305 0.000000 0.000000 0.000000 -28.423661 -1.954452 0.924068 -54.033794 -10.044551 -4.912608 -127.379525 -49.178319 98.628200 0.000000 0.000000 0.000000 17.922815 15.695898 6.437377 62.075437 10.183789 -3.323337 146.571175 51.854967 125.363955 0.000000 0.000000 0.000000 
0.021894 0.941387 -0.057837 -0.632690 -14.445970 -1.499009 5.651656 0.565029 6.680293 0.684690 0.130271 -5.435056 9.663986 19.220254 12.455496 0.000000 0.000000 0.000000 -6.899852 0.296803 4.991173 1.071919 -0.208948 -5.572088 -3.166150 -13.788343 17.238848 0.000000 0.000000 0.000000 -5.886097 0.090054 -0.260298 6.022365 -1.563920 -18.682105 3.742581 6.259964 29.871684 1.904034 0.187613 -28.221762 0.000000 0.000000 0.000000 -28.567674 -1.779879 0.767051 -53.733852 -9.453489 -5.147704 -126.496035 -48.480293 96.364083 0.000000 0.000000 0.000000 17.898814 15.693089 6.451718 62.413065 10.087086 -3.378011 146.032489 51.620386 124.266217 0.000000 0.000000 0.000000 
0.022019 0.941279 -0.057678 -0.524506 -14.660591 -1.542724 5.538802 0.590309 6.913108 0.602297 0.144615 -5.584931 9.778415 19.410993 12.417461 0.000000 0.000000 0.000000 -7.041626 0.318096 4.986778 1.243600 -0.212294 -5.613864 -3.134107 -13.716579 17.057842 0.000000 0.000000 0.000000 -5.752072 0.086824 -0.428251 5.962894 -1.561532 -18.574277 3.738748 6.227813 29.988483 1.692029 0.281590 -28.311793 0.000000 0.000000 0.000000 -28.760828 -1.501766 0.653524 -53.564050 -8.973554 -5.381943 -125.763859 -48.009701 94.851150 0.000000 0.000000 0.000000 17.602784 15.861336 6.476180 62.814804 10.063432 -3.417974 146.131306 51.440596 124.159633 0.000000 0.000000 0.000000 
0.022198 0.941296 -0.057546 -0.481575 -14.639700 -1.713022 5.524507 0.621382 7.297417 0.521045 0.163096 -5.817304 9.870249 19.565528 12.520262 0.000000 0.000000 0.000000 -7.163143 0.327081 5.244845 1.314715 -0.216282 -5.776465 -3.124264 -13.729436 17.197195 0.000000 0.000000 0.000000 -5.666511 0.081802 -0.437925 6.034502 -1.590345 -18.498380 3.764331 6.145652 30.037712 1.605879 0.304984 -28.153960 0.000000 0.000000 0.000000 -28.907850 -1.304413 0.555295 -53.562292 -8.391381 -5.654622 -125.693724 -47.591222 94.260579 0.000000 0.000000 0.000000 17.432344 15.771012 6.400725 63.095653 9.800349 -3.582289 145.579390 51.109864 122.802718 0.000000 0.000000 0.000000 
0.022368 0.941084 -0.057654 -0.489812 -14.460123 -1.817431 5.616388 0.621969 7.376337 0.450218 0.165153 -5.730439 9.790319 19.453734 12.458987 0.000000 0.000000 0.000000 -7.241142 0.328313 5.382196 1.492230 -0.222336 -5.825478 -3.176207 -13.773320 17.153368 0.000000 0.000000 0.000000 -5.536688 0.076213 -0.421057 6.130904 -1.614739 -18.500148 3.691927 5.921534 30.110846 1.607958 0.287630 -28.237934 0.000000 0.000000 0.000000 -29.048970 -1.220793 0.542351 -53.526898 -8.068583 -5.815495 -126.021999 -47.448082 94.572087 0.000000 0.000000 0.000000 17.351653 15.827878 6.398651 63.046054 9.352875 -3.837847 145.103574 50.685451 121.392981 0.000000 0.000000 0.000000 
